#!OML:ASF I:\golf\golf\golf 2\Subject 1\2002-09-07\Subject1.ASF
:FULLY-SPECIFIED
:DEGREES
155
root -6.66963 17.8666 0.182418 -127.77 84.5292 -144.614
lowerback 2.62364 1.89709 -1.49461
upperback 4.12394 2.59349 5.08727
thorax 2.4855 1.24953 6.10968
lowerneck -14.2055 -3.40213 0.982763
upperneck 41.43 -1.8596 -3.08491
head 17.6254 -0.331928 -1.72526
rclavicle -2.50469e-014 -1.03368e-014
rhumerus -6.8125 2.0526 -99.7752
rradius 23.9213
rwrist -43.3985
rhand -16.3252 -7.33908
rfingers 7.12502
rthumb 9.88638 -37.087
lclavicle -2.50469e-014 -1.03368e-014
lhumerus -13.8504 -53.0975 113.417
lradius 29.8423
lwrist 39.6024
lhand -11.3008 71.0822
lfingers 7.12502
lthumb -165.269 79.4612
rfemur -26.0352 -1.9652 11.0165
rtibia 24.8574
rfoot -10.7754 -13.9884
rtoes 20.2971
lfemur -28.4437 4.10727 -6.79505
ltibia 25.2
lfoot -8.89988 0.500447
ltoes -25.0453
156
root -6.67016 17.8656 0.181927 -128.095 84.5257 -144.932
lowerback 2.62903 1.90843 -1.41782
upperback 4.12894 2.6085 5.02729
thorax 2.49129 1.2592 6.00193
lowerneck -14.2139 -3.40363 1.05142
upperneck 41.4324 -1.89232 -3.06711
head 17.6263 -0.331701 -1.73553
rclavicle 3.18055e-015 1.11319e-014
rhumerus -6.73385 1.6872 -99.8721
rradius 23.8226
rwrist -43.005
rhand -16.2986 -7.37689
rfingers 7.12502
rthumb 9.9121 -37.1235
lclavicle 3.18055e-015 1.11319e-014
lhumerus -13.853 -53.1849 113.341
lradius 29.8192
lwrist 39.5126
lhand -11.3695 71.1278
lfingers 7.12502
lthumb -165.335 79.4108
rfemur -26.0319 -2.066 11.0185
rtibia 24.874
rfoot -10.9303 -13.8754
rtoes 21.9012
lfemur -28.4471 4.08006 -6.81636
ltibia 25.1934
lfoot -8.8677 0.516892
ltoes -24.6162
157
root -6.67036 17.8667 0.183074 -127.96 84.5438 -144.797
lowerback 2.64075 1.91329 -1.50153
upperback 4.12951 2.61527 5.08306
thorax 2.47904 1.26043 6.10832
lowerneck -14.26 -3.3918 0.945356
upperneck 41.4723 -1.85219 -3.02417
head 17.6669 -0.324723 -1.69116
rclavicle -7.95139e-016 -4.13472e-014
rhumerus -6.76437 1.88826 -99.8257
rradius 23.8444
rwrist -42.9447
rhand -16.2256 -7.49799
rfingers 7.12502
rthumb 9.98252 -37.2413
lclavicle -7.95139e-016 -4.13472e-014
lhumerus -13.7968 -53.1398 113.354
lradius 29.7835
lwrist 39.3454
lhand -11.5408 71.3814
lfingers 7.12502
lthumb -165.5 79.1452
rfemur -26.0406 -2.03938 11.0104
rtibia 24.8777
rfoot -10.8818 -13.9048
rtoes 21.6288
lfemur -28.4437 4.07877 -6.8102
ltibia 25.1924
lfoot -8.85614 0.514912
ltoes -24.198
158
root -6.67093 17.8685 0.18296 -127.723 84.5604 -144.555
lowerback 2.65438 1.92479 -1.56025
upperback 4.13453 2.63117 5.13327
thorax 2.47044 1.26691 6.19453
lowerneck -14.274 -3.39209 0.871328
upperneck 41.4752 -1.82944 -3.0187
head 17.6753 -0.326219 -1.67147
rclavicle -2.74323e-014 -4.13472e-014
rhumerus -6.82928 2.18738 -99.769
rradius 23.9533
rwrist -43.122
rhand -16.1551 -7.62776
rfingers 7.12502
rthumb 10.0505 -37.3678
lclavicle -2.74323e-014 -4.13472e-014
lhumerus -13.7185 -53.0569 113.349
lradius 29.7129
lwrist 39.1084
lhand -11.578 71.6281
lfingers 7.12502
lthumb -165.536 78.8959
rfemur -26.0439 -2.01058 11.0078
rtibia 24.8786
rfoot -10.9499 -13.8286
rtoes 22.5432
lfemur -28.4227 4.09989 -6.81085
ltibia 25.1902
lfoot -8.8927 0.513429
ltoes -24.4679
159
root -6.67053 17.8693 0.183706 -127.47 84.5475 -144.301
lowerback 2.62525 1.95983 -1.44859
upperback 4.15325 2.67778 5.07439
thorax 2.50764 1.29265 6.06945
lowerneck -14.2527 -3.41252 0.938485
upperneck 41.4349 -1.90604 -2.97683
head 17.6422 -0.342378 -1.67687
rclavicle -1.82882e-014 5.1684e-014
rhumerus -6.79188 1.98855 -99.8454
rradius 23.9914
rwrist -43.0848
rhand -16.0494 -7.71401
rfingers 7.12502
rthumb 10.1525 -37.4491
lclavicle -1.82882e-014 5.1684e-014
lhumerus -13.718 -53.2411 113.269
lradius 29.6731
lwrist 39.0262
lhand -11.628 71.7623
lfingers 7.12502
lthumb -165.585 78.7584
rfemur -26.0478 -1.98243 11.0306
rtibia 24.8878
rfoot -11.2119 -13.7152
rtoes 24.4114
lfemur -28.4148 4.10972 -6.77779
ltibia 25.1917
lfoot -8.92422 0.530662
ltoes -24.6121
160
root -6.6703 17.8694 0.185633 -127.504 84.5404 -144.342
lowerback 2.60467 1.97064 -1.40982
upperback 4.16017 2.69161 5.03647
thorax 2.52792 1.30023 6.00808
lowerneck -14.2229 -3.41743 0.984847
upperneck 41.3971 -1.94428 -2.95113
head 17.6101 -0.348574 -1.67892
rclavicle -8.74653e-015 1.19271e-014
rhumerus -6.74437 1.80635 -99.9233
rradius 23.9615
rwrist -42.9963
rhand -15.9599 -7.749
rfingers 7.12502
rthumb 10.2388 -37.4798
lclavicle -8.74653e-015 1.19271e-014
lhumerus -13.7181 -53.4383 113.2
lradius 29.6313
lwrist 38.9491
lhand -11.6348 71.8029
lfingers 7.12502
lthumb -165.591 78.7173
rfemur -26.0677 -1.96227 11.03
rtibia 24.9114
rfoot -11.3894 -13.7075
rtoes 24.9225
lfemur -28.4284 4.12143 -6.77098
ltibia 25.1968
lfoot -8.93105 0.517724
ltoes -24.392
